# xmcd
#
# Track frame offsets:
#	150
#	19403
#	34895
#	53165
#	64046
#	76794
#	89466
#	105476
#	125760
#	140730
#	153682
#	167465
#	185462
#	195629
#	210229
#
# Disc length: 2994 seconds
#
# Revision: 0
# Processed by: cddbd v1.5.2PL0 Copyright (c) Steve Scherf et al.
# Submitted via: EasyCDDAExtractor 11.1.0.1
#
DISCID=cb0bb00f
DTITLE=Various Artist - Nashville Music Express
DYEAR=1900
DGENRE=country
TTITLE0=T.J.James - A little after
TTITLE1=BrandonStith - From here to eternity
TTITLE2=Buddy McDavid - Hello little bird
TTITLE3=Raymond L. Boudreaux - Hey Bartender
TTITLE4=Gene Watson - Hold that thought
TTITLE5=Christina Coleman - Hurt me
TTITLE6=Cathilee Harmon - Let it rain
TTITLE7=Gina Fyfee - My heart will go on
TTITLE8=Mr Bones - My Marie
TTITLE9=Jim Bundy - Papa
TTITLE10=Billy Joe Burnette - Since I fell for you
TTITLE11=Traci Binkley - Soft place to fall
TTITLE12=Johnny Eagle - Sweet lori
TTITLE13=Todd Dunford - Tennessee rain
TTITLE14=Elvis Wade - You love me to pieces
EXTD=
EXTT0=
EXTT1=
EXTT2=
EXTT3=
EXTT4=
EXTT5=
EXTT6=
EXTT7=
EXTT8=
EXTT9=
EXTT10=
EXTT11=
EXTT12=
EXTT13=
EXTT14=
PLAYORDER=
